<?xml version="1.0" encoding="UTF-8" standalone="no"?>
<svg viewBox="0 0 377.1225 478.93777" xmlns="http://www.w3.org/2000/svg">
<g transform="translate(-67.17291,-498.93661)">
<g transform="matrix(-.14631,-.11948,-.11948,.14631,371.40055,735.12039)">
<path d="m740,725.21933c.47104,27.19259-3.13511,55.38743 9.26655,80.80606 9.15186,30.4987 32.08798,53.66041 44.5745,82.70322 21.6778,26.89014 12.54702,62.81275 15.28613,94.18649-1.95409,19.4346-14.12137,13.6472-5.80105-2.3203 7.57793-31.15871 16.41619-68.84982 49.23722-82.59249 21.08846-10.42495 44.5203-19.34326 57.2114-40.7084 22.72374-29.1159 30.37107-65.87975 33.57218-101.79215 .32262-17.75597 10.18111-50.79252-4.44592-59.02057-16.54737,19.3956-43.69625,16.61859-66.2606,21.33721-26.33468,2.34687-52.38859-2.02143-78.4421-4.06446-17.46497,3.0974-42.4447-6.45284-54.64608,6.02507l.44777,5.44032z" fill="#fc0"/>
<path d="m753.01281,712.87492c-2.29583,29.75999-11.95545,61.8243 1.73714,90.16682 7.03803,14.49593 21.79652,22.55472 29.42634,36.70311 17.64871,27.51201 22.80116,61.33085 22.35081,93.73615 8.44841,24.22716-12.63137,45.2017-12.86698,68.8626-.16082,6.2472 4.77739,14.6374 5.17978,3.6726 3.44597-25.1921-10.59394-52.60416 3.40707-76.0779 24.17059-22.00966 62.31901-5.20482 86.01537-28.47367 26.486-20.72052 53.52222-47.19698 58.03174-82.91092 5.03716-27.49974-4.61522-54.72557-16.75462-78.81597-6.32196-11.91896-11.30949-24.7135-18.08117-36.27355-18.50181-22.62372-49.57404-25.94084-76.49562-25.2622-13.20308-1.2035-25.19712,4.1943-35.92484,11.73666-14.53707,9.1452-28.99818,19.46752-46.02502,22.93627z" fill="#ff0" opacity=".5123"/>
<path d="m761.42857,710.93361c-.58666,20.62224-7.18076,43.17015 4.25518,62.11093 5.23562,11.1053 11.50648,21.83223 19.55144,31.20522 7.2503,9.28061 16.08832,17.32004 22.8551,26.93266 14.14127,24.91704 11.3036,56.09128.009,81.50846-.69973,3.40879-4.14851,10.2701-1.97915,2.26734 3.14703-9.77544 5.04226-21.59034 13.69342-28.12614 20.66548-15.71001 50.38837-14.60337 68.53042-34.33052 15.64383-10.58719 19.78526-31.17914 17.32874-48.842-1.72636-14.80124-7.45156-28.69271-10.54054-43.21048-3.1535-12.19315-9.28617-26.68478-23.29372-28.85179-13.15375-.95976-26.37062,1.44593-39.57356,1.04416-11.91797-.80846-25.13877,1.42612-36.11351-3.67231-9.08435-6.15231-14.08283-18.80479-25.84484-20.50459-3.13815-.22043-6.2189.87766-8.87827,2.46906z" fill="#f00" opacity=".5123"/>
<path d="m768.57143,716.6479c-.38078,22.65963-6.25595,47.46872 5.97104,68.19372 8.86726,15.14809 20.56296,28.43582 32.0669,41.61551 12.18408,12.71824 23.20951,28.05929 24.07735,46.28996 2.91451,19.66115 1.27673,40.01643-6.10652,58.55423 4.38704-11.35232 6.08006-23.60906 11.8181-34.52213 3.92448-9.66314 11.73249-15.68849 15.85604-25.68382 8.10501-14.21286 15.30366-32.04136 32.30997-37.33287 28.31847-12.77598-2.25623-46.27311 24.86052-61.52239 13.22054-7.76652 49.21492-20.95319 50.57059-36.56284 2.4879-15.26155 35.5242-7.94155 36.02318-23.27996-.54909-12.71877-10.16682-27.73618-24.57022-25.22448-18.36051,2.00599-36.64444,5.24372-54.99,7.66712-36.80319,3.80101-73.48629,14.1625-110.72113,9.66542-13.45431-.16363-24.81598,8.12136-37.16582,12.14253z" fill="#f60" opacity=".5123"/>
<path d="m842.85715,706.64789c-3.04556,15.16748-21.02065,17.51353-30.86672,26.85456-12.86847,7.29668-11.29861,22.77914-12.22101,35.40128-2.55884,18.3989 16.58503,27.18124 26.22792,39.72018 8.9755,13.27007 3.02491,31.52975-2.82191,44.81104-1.72387,16.44666-8.47733,35.65366 4.78751,49.22861-1.4705.49995-12.03053-25.8011-.22434-32.56678 12.7064-6.417 31.63891,4.06722 39.063-13.5993 10.04004-12.60526 12.3235-28.94691 17.85225-43.70792 4.88772-20.49873 6.97645-42.23075 4.32646-63.12833-4.74769-14.31255-11.79311-28.17072-20.65566-40.34075-8.69757-10.75514-22.6619,13.53451-29.61824,3.96772 1.27026-2.28544 2.94808-4.30488 4.15074-6.64031z" fill="#f00"/>
</g>
<g transform="matrix(.16134,.09824,-.09824,.16134,235.78504,637.16839)">
<path d="m740,725.21933c.47104,27.19259-3.13511,55.38743 9.26655,80.80606 9.15186,30.4987 32.08798,53.66041 44.5745,82.70322 21.6778,26.89014 12.54702,62.81275 15.28613,94.18649-1.95409,19.4346-14.12137,13.6472-5.80105-2.3203 7.57793-31.15871 16.41619-68.84982 49.23722-82.59249 21.08846-10.42495 44.5203-19.34326 57.2114-40.7084 22.72374-29.1159 30.37107-65.87975 33.57218-101.79215 .32262-17.75597 10.18111-50.79252-4.44592-59.02057-16.54737,19.3956-43.69625,16.61859-66.2606,21.33721-26.33468,2.34687-52.38859-2.02143-78.4421-4.06446-17.46497,3.0974-42.4447-6.45284-54.64608,6.02507l.44777,5.44032z" fill="#fc0"/>
<path d="m753.01281,712.87492c-2.29583,29.75999-11.95545,61.8243 1.73714,90.16682 7.03803,14.49593 21.79652,22.55472 29.42634,36.70311 17.64871,27.51201 22.80116,61.33085 22.35081,93.73615 8.44841,24.22716-12.63137,45.2017-12.86698,68.8626-.16082,6.2472 4.77739,14.6374 5.17978,3.6726 3.44597-25.1921-10.59394-52.60416 3.40707-76.0779 24.17059-22.00966 62.31901-5.20482 86.01537-28.47367 26.486-20.72052 53.52222-47.19698 58.03174-82.91092 5.03716-27.49974-4.61522-54.72557-16.75462-78.81597-6.32196-11.91896-11.30949-24.7135-18.08117-36.27355-18.50181-22.62372-49.57404-25.94084-76.49562-25.2622-13.20308-1.2035-25.19712,4.1943-35.92484,11.73666-14.53707,9.1452-28.99818,19.46752-46.02502,22.93627z" fill="#ff0" opacity=".5123"/>
<path d="m761.42857,710.93361c-.58666,20.62224-7.18076,43.17015 4.25518,62.11093 5.23562,11.1053 11.50648,21.83223 19.55144,31.20522 7.2503,9.28061 16.08832,17.32004 22.8551,26.93266 14.14127,24.91704 11.3036,56.09128.009,81.50846-.69973,3.40879-4.14851,10.2701-1.97915,2.26734 3.14703-9.77544 5.04226-21.59034 13.69342-28.12614 20.66548-15.71001 50.38837-14.60337 68.53042-34.33052 15.64383-10.58719 19.78526-31.17914 17.32874-48.842-1.72636-14.80124-7.45156-28.69271-10.54054-43.21048-3.1535-12.19315-9.28617-26.68478-23.29372-28.85179-13.15375-.95976-26.37062,1.44593-39.57356,1.04416-11.91797-.80846-25.13877,1.42612-36.11351-3.67231-9.08435-6.15231-14.08283-18.80479-25.84484-20.50459-3.13815-.22043-6.2189.87766-8.87827,2.46906z" fill="#f00" opacity=".5123"/>
<path d="m768.57143,716.6479c-.38078,22.65963-6.25595,47.46872 5.97104,68.19372 8.86726,15.14809 20.56296,28.43582 32.0669,41.61551 12.18408,12.71824 23.20951,28.05929 24.07735,46.28996 2.91451,19.66115 1.27673,40.01643-6.10652,58.55423 4.38704-11.35232 6.08006-23.60906 11.8181-34.52213 3.92448-9.66314 11.73249-15.68849 15.85604-25.68382 8.10501-14.21286 15.30366-32.04136 32.30997-37.33287 28.31847-12.77598-2.25623-46.27311 24.86052-61.52239 13.22054-7.76652 49.21492-20.95319 50.57059-36.56284 2.4879-15.26155 35.5242-7.94155 36.02318-23.27996-.54909-12.71877-10.16682-27.73618-24.57022-25.22448-18.36051,2.00599-36.64444,5.24372-54.99,7.66712-36.80319,3.80101-73.48629,14.1625-110.72113,9.66542-13.45431-.16363-24.81598,8.12136-37.16582,12.14253z" fill="#f60" opacity=".5123"/>
<path d="m842.85715,706.64789c-3.04556,15.16748-21.02065,17.51353-30.86672,26.85456-12.86847,7.29668-11.29861,22.77914-12.22101,35.40128-2.55884,18.3989 16.58503,27.18124 26.22792,39.72018 8.9755,13.27007 3.02491,31.52975-2.82191,44.81104-1.72387,16.44666-8.47733,35.65366 4.78751,49.22861-1.4705.49995-12.03053-25.8011-.22434-32.56678 12.7064-6.417 31.63891,4.06722 39.063-13.5993 10.04004-12.60526 12.3235-28.94691 17.85225-43.70792 4.88772-20.49873 6.97645-42.23075 4.32646-63.12833-4.74769-14.31255-11.79311-28.17072-20.65566-40.34075-8.69757-10.75514-22.6619,13.53451-29.61824,3.96772 1.27026-2.28544 2.94808-4.30488 4.15074-6.64031z" fill="#f00"/>
</g>
<g transform="matrix(.48043,.30088,-.49825,.69958,193.25487,15.20995)">
<path d="m740,725.21933c.47104,27.19259-3.13511,55.38743 9.26655,80.80606 9.15186,30.4987 32.08798,53.66041 44.5745,82.70322 21.6778,26.89014 12.54702,62.81275 15.28613,94.18649-1.95409,19.4346-14.12137,13.6472-5.80105-2.3203 7.57793-31.15871 16.41619-68.84982 49.23722-82.59249 21.08846-10.42495 44.5203-19.34326 57.2114-40.7084 22.72374-29.1159 30.37107-65.87975 33.57218-101.79215 .32262-17.75597 10.18111-50.79252-4.44592-59.02057-16.54737,19.3956-43.69625,16.61859-66.2606,21.33721-26.33468,2.34687-52.38859-2.02143-78.4421-4.06446-17.46497,3.0974-42.4447-6.45284-54.64608,6.02507l.44777,5.44032z" fill="#fc0"/>
<path d="m753.01281,712.87492c-2.29583,29.75999-11.95545,61.8243 1.73714,90.16682 7.03803,14.49593 21.79652,22.55472 29.42634,36.70311 17.64871,27.51201 22.80116,61.33085 22.35081,93.73615 8.44841,24.22716-12.63137,45.2017-12.86698,68.8626-.16082,6.2472 4.77739,14.6374 5.17978,3.6726 3.44597-25.1921-10.59394-52.60416 3.40707-76.0779 24.17059-22.00966 62.31901-5.20482 86.01537-28.47367 26.486-20.72052 53.52222-47.19698 58.03174-82.91092 5.03716-27.49974-4.61522-54.72557-16.75462-78.81597-6.32196-11.91896-11.30949-24.7135-18.08117-36.27355-18.50181-22.62372-49.57404-25.94084-76.49562-25.2622-13.20308-1.2035-25.19712,4.1943-35.92484,11.73666-14.53707,9.1452-28.99818,19.46752-46.02502,22.93627z" fill="#ff0" opacity=".5123"/>
<path d="m761.42857,710.93361c-.58666,20.62224-7.18076,43.17015 4.25518,62.11093 5.23562,11.1053 11.50648,21.83223 19.55144,31.20522 7.2503,9.28061 16.08832,17.32004 22.8551,26.93266 14.14127,24.91704 11.3036,56.09128.009,81.50846-.69973,3.40879-4.14851,10.2701-1.97915,2.26734 3.14703-9.77544 5.04226-21.59034 13.69342-28.12614 20.66548-15.71001 50.38837-14.60337 68.53042-34.33052 15.64383-10.58719 19.78526-31.17914 17.32874-48.842-1.72636-14.80124-7.45156-28.69271-10.54054-43.21048-3.1535-12.19315-9.28617-26.68478-23.29372-28.85179-13.15375-.95976-26.37062,1.44593-39.57356,1.04416-11.91797-.80846-25.13877,1.42612-36.11351-3.67231-9.08435-6.15231-14.08283-18.80479-25.84484-20.50459-3.13815-.22043-6.2189.87766-8.87827,2.46906z" fill="#f00" opacity=".5123"/>
<path d="m768.57143,716.6479c-.38078,22.65963-6.25595,47.46872 5.97104,68.19372 8.86726,15.14809 20.56296,28.43582 32.0669,41.61551 12.18408,12.71824 23.20951,28.05929 24.07735,46.28996 2.91451,19.66115 1.27673,40.01643-6.10652,58.55423 4.38704-11.35232 6.08006-23.60906 11.8181-34.52213 3.92448-9.66314 11.73249-15.68849 15.85604-25.68382 8.10501-14.21286 15.30366-32.04136 32.30997-37.33287 28.31847-12.77598-2.25623-46.27311 24.86052-61.52239 13.22054-7.76652 49.21492-20.95319 50.57059-36.56284 2.4879-15.26155 35.5242-7.94155 36.02318-23.27996-.54909-12.71877-10.16682-27.73618-24.57022-25.22448-18.36051,2.00599-36.64444,5.24372-54.99,7.66712-36.80319,3.80101-73.48629,14.1625-110.72113,9.66542-13.45431-.16363-24.81598,8.12136-37.16582,12.14253z" fill="#f60" opacity=".5123"/>
<path d="m842.85715,706.64789c-3.04556,15.16748-21.02065,17.51353-30.86672,26.85456-12.86847,7.29668-11.29861,22.77914-12.22101,35.40128-2.55884,18.3989 16.58503,27.18124 26.22792,39.72018 8.9755,13.27007 3.02491,31.52975-2.82191,44.81104-1.72387,16.44666-8.47733,35.65366 4.78751,49.22861-1.4705.49995-12.03053-25.8011-.22434-32.56678 12.7064-6.417 31.63891,4.06722 39.063-13.5993 10.04004-12.60526 12.3235-28.94691 17.85225-43.70792 4.88772-20.49873 6.97645-42.23075 4.32646-63.12833-4.74769-14.31255-11.79311-28.17072-20.65566-40.34075-8.69757-10.75514-22.6619,13.53451-29.61824,3.96772 1.27026-2.28544 2.94808-4.30488 4.15074-6.64031z" fill="#f00"/>
</g>
<g transform="matrix(-.14956,-.1646,-.17692,.12953,467.71597,860.56348)">
<path d="m740,725.21933c.47104,27.19259-3.13511,55.38743 9.26655,80.80606 9.15186,30.4987 32.08798,53.66041 44.5745,82.70322 21.6778,26.89014 12.54702,62.81275 15.28613,94.18649-1.95409,19.4346-14.12137,13.6472-5.80105-2.3203 7.57793-31.15871 16.41619-68.84982 49.23722-82.59249 21.08846-10.42495 44.5203-19.34326 57.2114-40.7084 22.72374-29.1159 30.37107-65.87975 33.57218-101.79215 .32262-17.75597 10.18111-50.79252-4.44592-59.02057-16.54737,19.3956-43.69625,16.61859-66.2606,21.33721-26.33468,2.34687-52.38859-2.02143-78.4421-4.06446-17.46497,3.0974-42.4447-6.45284-54.64608,6.02507l.44777,5.44032z" fill="#fc0"/>
<path d="m753.01281,712.87492c-2.29583,29.75999-11.95545,61.8243 1.73714,90.16682 7.03803,14.49593 21.79652,22.55472 29.42634,36.70311 17.64871,27.51201 22.80116,61.33085 22.35081,93.73615 8.44841,24.22716-12.63137,45.2017-12.86698,68.8626-.16082,6.2472 4.77739,14.6374 5.17978,3.6726 3.44597-25.1921-10.59394-52.60416 3.40707-76.0779 24.17059-22.00966 62.31901-5.20482 86.01537-28.47367 26.486-20.72052 53.52222-47.19698 58.03174-82.91092 5.03716-27.49974-4.61522-54.72557-16.75462-78.81597-6.32196-11.91896-11.30949-24.7135-18.08117-36.27355-18.50181-22.62372-49.57404-25.94084-76.49562-25.2622-13.20308-1.2035-25.19712,4.1943-35.92484,11.73666-14.53707,9.1452-28.99818,19.46752-46.02502,22.93627z" fill="#ff0" opacity=".5123"/>
<path d="m761.42857,710.93361c-.58666,20.62224-7.18076,43.17015 4.25518,62.11093 5.23562,11.1053 11.50648,21.83223 19.55144,31.20522 7.2503,9.28061 16.08832,17.32004 22.8551,26.93266 14.14127,24.91704 11.3036,56.09128.009,81.50846-.69973,3.40879-4.14851,10.2701-1.97915,2.26734 3.14703-9.77544 5.04226-21.59034 13.69342-28.12614 20.66548-15.71001 50.38837-14.60337 68.53042-34.33052 15.64383-10.58719 19.78526-31.17914 17.32874-48.842-1.72636-14.80124-7.45156-28.69271-10.54054-43.21048-3.1535-12.19315-9.28617-26.68478-23.29372-28.85179-13.15375-.95976-26.37062,1.44593-39.57356,1.04416-11.91797-.80846-25.13877,1.42612-36.11351-3.67231-9.08435-6.15231-14.08283-18.80479-25.84484-20.50459-3.13815-.22043-6.2189.87766-8.87827,2.46906z" fill="#f00" opacity=".5123"/>
<path d="m768.57143,716.6479c-.38078,22.65963-6.25595,47.46872 5.97104,68.19372 8.86726,15.14809 20.56296,28.43582 32.0669,41.61551 12.18408,12.71824 23.20951,28.05929 24.07735,46.28996 2.91451,19.66115 1.27673,40.01643-6.10652,58.55423 4.38704-11.35232 6.08006-23.60906 11.8181-34.52213 3.92448-9.66314 11.73249-15.68849 15.85604-25.68382 8.10501-14.21286 15.30366-32.04136 32.30997-37.33287 28.31847-12.77598-2.25623-46.27311 24.86052-61.52239 13.22054-7.76652 49.21492-20.95319 50.57059-36.56284 2.4879-15.26155 35.5242-7.94155 36.02318-23.27996-.54909-12.71877-10.16682-27.73618-24.57022-25.22448-18.36051,2.00599-36.64444,5.24372-54.99,7.66712-36.80319,3.80101-73.48629,14.1625-110.72113,9.66542-13.45431-.16363-24.81598,8.12136-37.16582,12.14253z" fill="#f60" opacity=".5123"/>
<path d="m842.85715,706.64789c-3.04556,15.16748-21.02065,17.51353-30.86672,26.85456-12.86847,7.29668-11.29861,22.77914-12.22101,35.40128-2.55884,18.3989 16.58503,27.18124 26.22792,39.72018 8.9755,13.27007 3.02491,31.52975-2.82191,44.81104-1.72387,16.44666-8.47733,35.65366 4.78751,49.22861-1.4705.49995-12.03053-25.8011-.22434-32.56678 12.7064-6.417 31.63891,4.06722 39.063-13.5993 10.04004-12.60526 12.3235-28.94691 17.85225-43.70792 4.88772-20.49873 6.97645-42.23075 4.32646-63.12833-4.74769-14.31255-11.79311-28.17072-20.65566-40.34075-8.69757-10.75514-22.6619,13.53451-29.61824,3.96772 1.27026-2.28544 2.94808-4.30488 4.15074-6.64031z" fill="#f00"/>
</g>
<path d="m412.2724,512.45544c-2.68417-.3908-5.57843-.44446-8.66296-.13548-1.23383.12359-2.50446.30239-3.79846.5415-2.588.47823-5.30029,1.18917-8.11567,2.14169-2.11159.71438-4.27161,1.56783-6.50232,2.557-7.43575,3.29724-15.5245,8.13484-24.10432,14.65038-1.06663.76775-2.14448,1.56401-3.23,2.37451-.84596.63166-1.69014,1.27786-2.54691,1.93452-.83229.63793-1.67014,1.27964-2.51207,1.94039l-.45358.35334c-.32331.25476-.64944.5269-.97404.78493-.0463.0367-.0962.0645-.14248.10134l-.78799.63721c-.56995.45657-1.14458.90955-1.71839,1.37577l-.8927.72702-.0814.0579c-.47492.38884-.94166.79825-1.41904,1.19343s-.96872.78163-1.45387,1.18756c-.53739.44953-1.07076.91886-1.611,1.37598l-1.10792.94145-.0407.029-.0407.029-1.15156.98781-.54378.46348c-.0736.0635-.13871.13342-.21231.19702l-1.67793,1.45424c-.3578.3124-.71136.61455-1.07016.9299-.12961.11393-.25124.23336-.38098.34766-.19848.17488-.39158.35151-.59036.52727-.0281.0249-.0562.0505-.0843.0753-.8246.72937-1.65424,1.45181-2.48354,2.19594l-.29664.27234c-1.91767,1.72374-3.85981,3.49309-5.79909,5.29028l-.25595.24339c-.10361.0961-.21334.19048-.317.28682-1.74747,1.62403-3.49803,3.27442-5.25845,4.95163-1.35829,1.2941-2.71967,2.60905-4.0836,3.93193-.52477.50897-1.04236,1.03146-1.56778,1.54444l-.4072.39697c-1.70181,1.66431-3.40743,3.34499-5.11347,5.04772-1.51052,1.50758-3.02067,3.03858-4.53192,4.57269l-1.59694,1.61116c-.13659.13947-.27355.27473-.41014.41439-1.95199,1.99588-3.90596,4.00215-5.85276,6.03341-2.0601,2.14945-4.11604,4.31953-6.16429,6.50024-.66028.70296-1.3109,1.41579-1.96952,2.12142-1.50049,1.6076-2.99584,3.21224-4.48596,4.83117-.3318.36047-.65795.72589-.98916,1.08683-1.75414,1.91158-3.5131,3.8202-5.24834,5.74133-.56179.62196-1.11628,1.24393-1.6758,1.8665-1.27558,1.41931-2.53707,2.84545-3.79973,4.26634-1.07353,1.20804-2.1431,2.40655-3.20622,3.61424l-2.2607,2.57377c-1.14567,1.31013-2.2874,2.61182-3.41874,3.91868-1.15701,1.3365-2.29276,2.67453-3.43342,4.00574-.49205.57424-.98348,1.14873-1.47231,1.72172-1.57074,1.84124-3.11762,3.67635-4.65272,5.5015-.35388.42074-.71889.83244-1.07076,1.25216-1.44498,1.72363-2.85968,3.43263-4.2688,5.13642l-1.28328,1.5566c-1.54177,1.87194-3.06398,3.73059-4.55705,5.57135l-.74496.9131-.45398.56818c-1.57855,1.9543-3.13343,3.89603-4.65039,5.80634-1.58749,1.99908-3.13617,3.97066-4.6506,5.91375-.81946,1.05143-1.60719,2.07156-2.40397,3.1048-.90513,1.17376-1.8088,2.33895-2.6834,3.48749-.11832.15538-.22861.30606-.34636.46095-.71197.93653-1.38754,1.84737-2.07816,2.76574-.12762-.18701-.27314-.3627-.44607-.54085-.26836-.27607-.58918-.53455-.95947-.7886l-.0174-.003c-.18191-.1248-.3781-.24787-.58285-.36691-.0686-.0398-.14062-.0861-.2117-.12524-.0515-.0283-.11257-.0537-.16533-.0816-.24077-.12754-.49351-.25872-.75993-.37886l-.24946-.1137c-.50536-.21708-1.05258-.40784-1.63629-.59827-.29065-.0949-.59403-.18956-.90238-.27753-1.03226-.29418-2.16122-.55209-3.36339-.76413-3.41415-.60176-7.429-.86896-11.54193-.69257-1.54159.0658-3.0906.20921-4.63432.40056-.13387.0166-.26705.0223-.40072.0399-1.01665.13363-2.02357.30181-3.0203.49362l-.77836.1553c-.42955.0901-.86075.18346-1.28377.28498l-.0755.0231c-.96169.23259-1.90052.4848-2.81761.77852-.30245.0969-.59823.21102-.89479.31475-.21152.0739-.42216.15652-.63045.23397-.19035.0708-.38482.13416-.57233.20794-.45259.17795-.89323.35077-1.32781.54619-.65594.33652-1.28481.68984-1.92972,1.03569-.91528.4907-1.8292.98261-2.72316,1.4929-.46474.26534-.93007.5336-1.38927.80446-.10794.0636-.21209.13285-.31973.19681-.89808.53378-1.77885,1.07354-2.65665,1.62947-.19064.12068-.37422.24879-.56393.37054-.79806.51242-1.59264,1.01968-2.37489,1.55163l-.061.0434c-.79549.54177-1.59503,1.09619-2.37509,1.65905-.3072.22161-.61378.44392-.91869.6689-.70723.52194-1.40088,1.0581-2.09627,1.5986l-.7647.60532c-.60203.4769-1.20901.95947-1.80276,1.4511-.15709.13005-.32033.25412-.47686.38522-.6014.50376-1.18917,1.02449-1.78261,1.54404-.47742.41786-.95824.83475-1.43079,1.26309l-.29665.27234c-1.77762,1.62314-3.51485,3.3363-5.23263,5.11717-.33706.34954-.68305.69023-1.01812,1.04613-.19268.20462-.37816.41346-.57021.62021-.36118.38889-.71739.78305-1.07644,1.17957-.74405.82151-1.49579,1.65198-2.23154,2.50705l-.62559.73624c-.30332.35757-.59706.7206-.89916,1.0841-.54862.6601-1.08175,1.32018-1.6267,2.00014-1.28584,1.60398-2.5775,3.25573-3.84752,4.97463l-.27944.3827c-.43871.5972-.86958,1.19185-1.30698,1.80333l-.0698.0957-.0262.0493c-.46946.65852-.94339,1.32584-1.41186,2.00054-.45005.64904-.90464,1.30955-1.35376,1.97453l-.0495.0812-.64635.96555c-.25335.37953-.51306.7581-.76572,1.14242-.34118.51896-.67509,1.03753-1.0162,1.56581-.12591.19471-.24101.38685-.36691.58285-.46892.72857-.94012,1.44959-1.40934,2.19798-.003.005.00013.0128-.003.0174-.0597.26264-.10774.53359-.15246.79811l-.009.0522c-.0363.21861-.0679.44496-.0942.66466s-.0427.44576-.0594.67053c-.002.0231-.0101.0465-.0117.0697-.005.0711-.0139.14072-.0179.2119-.002.0418-.001.0829-.003.12483-.0004.006-.003.0117-.003.0174-.00077.0181.009.0371.009.0552-.003.0709-.0157.14089-.0178.21189-.003.11915-.006.23777-.007.35709-.002.37488.003.73862.0269,1.11489l.006.0726c.00017.006-.003.0118-.003.0174 .0127.18282.0325.36295.0512.5459l.0285.25554c.004.0373.0126.073.0172.11036 .032.25768.0768.51464.12047.77249 .00083.005-.004.012-.003.0174 .05.29468.0932.57375.15803.86837s.14833.58583.22768.88011c.0737.27125.15333.53982.23943.81046l.0462.15105c.0805.2466.16097.49485.25118.7408 .0189.0521.0443.10194.0636.154l.026.0581c.0819.21648.15952.43493.24844.6508 .01.0244.013.0511.0231.0755 .1223.29425.25566.57877.39028.87171 .18537.40327.37482.80911.58416,1.20885 .0411.0786.0794.15687.12149.23539l.15044.2761 .0145.0203 .21989.39526c.40354.70413.85971,1.39932 1.33152,2.08705l.029.0407c.19399.28184.37143.55286.57616.83142l.16219.20644c.1949.26102.39846.52431.60239.78211 .14608.18593.29256.3741.44313.55826l.23752.29078 .46348.54378c.24689.28281.49616.56553.75324.84337 .35955.38857.73727.75926 1.11558,1.13728l.0608.064c.1909.19009.39002.3771.58538.56434l.66364.63126 .0464.0436c.99899.91506 2.04642,1.79435 3.13921,2.62468 .55905.42478 1.12834.83736 1.70765,1.23712 .0218.015.042.0316.0638.0466l.0174.003c.27568.18938.55826.36984.83798.55321 .26849.17603.53414.35961.8061.52992l.17687.11936c.17125.10622.3495.19906.522.30293l.2117.12524c.15226.0905.30212.18513.45529.27377l.14792.0786 .27842.1544c.0941.0531.18107.11942.27548.17182l.0174.003c.19021.10548.38286.20921.57425.31173 .39379.21092.78802.41391 1.18626.61194l.29877.13992c.0284.0139.0527.0357.0812.0495 .48554.23554.97434.44354 1.46488.65891 .21226.0933.41935.19631.63236.28572l.21758.0904c.49289.20355.98085.4074 1.47662.58926 .24179.0886.48601.16485.72824.24816l.2031.0701c.33366.1126.6669.22774 1.00099.32997 .9999.3063 2.00696.56709 3.00337.77506l.34827.0587 .13638.0409 .505.0851c.33026.0574.66689.10415.99552.14999l.49052.0648c.4926.0601.97554.1068 1.46296.13923 .32572.0216.65249.0481.97538.057 .24476.007.49159-.00088.73452-.001l.32226.00064 .0551-.009 .0522.009 .75781-.0334 .47038-.0281c.15286-.0117.30401-.0336.4559-.0485l.0174.003c.30709-.0304.61195-.0706.91474-.11439l.23812-.0315c.23098-.0364.45429-.0733.68249-.11774l.11035-.0172c.26378-.0528.52154-.10892.7813-.17271 .29488-.0724.59365-.15788.88305-.2451l.22658-.0692 .0785-.0405c.0252-.008.0505-.0149.0755-.0231l.18882-.0577 .30211-.0923c.56584-.20324 1.1193-.44156 1.65908-.70524 .004-.002.0133.005.0174.003 .54398-.26635 1.0697-.56693 1.58396-.897 1.88186-4.48439 3.51159-8.39351 5.05121-12.00688 .12522-.29387.2349-.56311.35871-.85287l.17496-.40031 .9419-2.18725c-.0366.3837-.0609.76727-.0864,1.14952-.005.071-.0134.14096-.0178.2119-.0367.59757-.06,1.2031-.0702,1.79696-.001.0836-.005.1661-.006.24967-.006.57867-.004,1.14667.0142,1.72164 .01.30745.025.61406.0418.92041 .0228.42276.0549.84824.0905,1.26888 .006.0669.0139.13352.0199.20036 .0576.64392.10994,1.27489.19669,1.9136 .004.0313.0158.0617.0201.0929 .17308,1.25362.39822,2.49973.67808,3.73194 .0341.1496.0681.29802.10366.4473 .1432.60207.31705,1.20433.48433,1.80092 .0121.0433.0194.0875.0317.1307 1.55348,5.48098 4.10203,10.73613 7.31541,15.66812 .0498.0763.10917.14771.15925.22385l-.0698.0957-.82069,1.0436c-.12651.16318-.24324.32848-.36965.49285-.4827.62768-.96797,1.25913-1.44943,1.90467-.49633.6654-.99511,1.35612-1.49033,2.04104-.1906.26367-.37428.5336-.56474.80022-.49379.69097-.98884,1.3854-1.48173,2.09622-.0598.0863-.12651.16852-.18629.25513-.22405.3243-.4428.6515-.6667.98003-.0275.0386-.0636.0711-.0902.11015-.32093.47205-.63423.93394-.95495,1.41497-.003.005.00011.0129-.003.0174-.0818.12316-.15955.24749-.24167.37116-.005.006-.0161.008-.0203.0145l-.0932.12757c-.4326.65268-.85171,1.31684-1.2841,1.98627l-.16594.24065c-.003.005.00011.013-.003.0174-.40456.62912-.8156,1.28123-1.22011,1.92543-.003.005.00013.0128-.003.0174-.43176.68771-.86987,1.38548-1.30172,2.09076-.0825.1346-.16507.27073-.24754.40598-.27792.45605-.56071.89944-.83872,1.36293l-.40195.6844c-.003.005.00014.0127-.003.0174-.46461.78058-.93585,1.55867-1.40094,2.36057-.18416.95625-.29139,1.92522-.34518,2.89677-.00041.006-.003.0115-.003.0174-.028.48136-.0367.97486-.0318,1.46317 .01.983.0872,1.96623.21793,2.9559 .0112.0853.0165.17023.0285.25554 .0504.35518.11285.71297.17797,1.06872 .0101.0551.0154.11049.0258.16553 .0823.4348.17832.86624.28204,1.30119 .0361.15075.0824.29953.12108.45023 .0157.061.0242.12486.0403.18588 .0825.31502.17773.62656.27112.94116 .0143.048.0142.10015.0287.14812 .20081.66457.43659,1.33508.68428,1.99582 .11348.30171.2267.59989.34958.90066 .002.005-.005.0126-.003.0174 .40064.98068.85746,1.94769 1.35317,2.91451 .24787.48341.50799.95973.77824,1.43858 .54049.9577 1.13526,1.90476 1.75977,2.8398 .93677,1.40256 1.9483,2.78024 3.04929,4.11386l.0174.003c.36427.44102.73882.88462 1.12104,1.3173l.0174.003c.15497.17533.30883.35257.46642.52637l.0144.0203c.21526.23582.4317.468.6519.70091 .0369.0394.0672.0858.10428.12504l.51866.53518c.61899.63846 1.25197,1.26582 1.90385,1.8791 .86056.80959 1.75216,1.60484 2.66358,2.36539 3.6457,3.0422 7.66581,5.66685 11.83058,7.68991 1.70862.82997 3.4467,1.55049 5.18687,2.16405 2.85496,1.0066 5.73091,1.71753 8.55483,2.05141 1.12955.13356 2.25587.21419 3.36441.22704 4.98842.0578 9.72297-1.14335 13.77462-3.94546 .74094-.84999 1.45817-1.71002 2.16775-2.55363 .48973-.58222.96555-1.16583 1.44042-1.74501s.9429-1.15821 1.40265-1.73347l1.11461-1.40595 .25027-.31597c1.16847-1.50211 2.29374-2.99483 3.37046-4.482l.46866-.65524c.41875-.58462.82014-1.16257 1.22558-1.74542l.52405-.77126c.20137-.29325.41613-.58854.61425-.88141 1.00905-1.49152 1.97417-2.97181 2.90008-4.45386 10.11123,3.12083 20.56072,3.71704 30.60688-.53412-1.20929,1.10715-2.44208,2.2119-3.76326,3.41286l-5.54021,5.02948c-.0702.29738-.13511.60042-.18752.89965-.18245,1.04156-.24762,2.09331-.22663,3.14957 .002.0829-.009.16676-.006.24967 .003.0736.0135.14416.017.21777s-.001.13175.003.19742c.0138.24195.0328.48384.0567.72592 .06.60844.14623,1.20948.26654,1.81793l.0145.0203c.0595.2999.11635.59216.18992.89165 .0754.30811.16672.61343.25664.92081 .0887.30309.17463.60424.27698.90633s.21656.59691.33217.89773c.10188.26566.20182.52406.31496.78738 .52378,1.23699 1.16545,2.45151 1.89178,3.65005 .002.004-.005.0136-.003.0174 .70166,1.15675 1.48383,2.28419 2.34808,3.38672l.0174.003c.21419.27305.42557.55672.64875.82575l.0174.003c.22325.26893.45467.54958.68652.81421 .70422.80393 1.4431,1.58506 2.21942,2.34422 1.55306,1.51853 3.24137,2.93738 5.01746,4.23083 .59188.43108 1.18451.85028 1.79469,1.25179 1.22072.80319 2.47219,1.53647 3.74684,2.20778l.0174.003c2.22586,1.17118 4.51215,2.13631 6.79399,2.82904 .65329.1983 1.31964.37526 1.97026.52922 1.30157.30806 2.59438.53483 3.86592.65187 .63567.0585 1.26067.0776 1.88398.0849 1.24685.0147 2.46893-.0769 3.64702-.28049 .589-.10182 1.16413-.22884 1.7311-.38864 1.41748-.39946 2.75946-.97371 4.00396-1.76047 .56872-.71534 1.13406-1.42493 1.68503-2.13357l.36671-.47544c.387-.50028.7512-.9958 1.12926-1.49302l.82657-1.07843c.23555-.3138.46378-.62664.69571-.93932 .40244-.54357.79588-1.0861 1.18758-1.62646 .0938-.12922.18621-.25365.27943-.3827 .48079-.6666.94731-1.33839 1.41187-2.00054 .0345-.0492.0791-.0929.11353-.14204l-.0174-.003c12.47787-17.82182 19.11795-34.10198 21.66856-52.88475 1.07543-12.84454-6.23767-30.08332-12.0854-34.00528 25.40186-37.7109 55.208-92.669 75.47237-140.64595 .58997-1.39671 1.18817-2.79602 1.76152-4.18021 .29803-.71929.58741-1.4281.88082-2.14382 .27282-.66564.55091-1.33059.81962-1.99296 .34183-.8421.67996-1.67858 1.01508-2.51518 .21558-.53825.41457-1.0597.62722-1.59558 .76018-1.91402 1.50618-3.79596 2.22888-5.67739 .30515-.79484.60342-1.58454.90161-2.37313l.45521-1.21268c.34329-.91505.68196-1.82401 1.01548-2.73002l.29769-.80943c.85705-2.34137 1.68676-4.65038 2.47513-6.92531 .35423-.96867.67974-1.92032 1.00414-2.8752 .64885-1.90974 1.24399-3.79462 1.77589-5.64631 .53366-1.85773 1.0049-3.67733 1.42427-5.47279 .20912-.89491.41015-1.77953.5915-2.65824 .54559-2.64255.95802-5.19792 1.26036-7.68531 .10052-.82724.19441-1.63489.26884-2.44401 .22281-2.42119.32746-4.76905.32398-7.0194l.003-.0174c-.003-1.50375-.0575-2.95574-.15717-4.37837-.84495-12.09393-5.13907-21.19128-11.84203-26.10222-3.15439-2.31104-6.90342-3.806-11.19808-4.43128z" fill="#1a1a1a" fill-rule="evenodd" stroke="#1a1a1a" stroke-width="5.65108"/>
<g transform="matrix(.55724,.09396,-.09396,.55724,103.44532,414.42471)">
<path d="m588.58345,84.63711c-24.73658-12.41802-62.56671.63952-104.34021,45.09928-93.20247,94.24172-220.88146,321.45006-226.33629,363.3454-7.67982,56.90468 29.84879,105.971 77.11911,127.83707 1.43245.66257 2.89548,1.30801 4.34735,1.92027 11.61495,4.89824 23.82693,8.17155 36.1601,9.54124 1.54165.17121 3.07399.30944 4.61864.42071 32.43779,2.33671 58.54122-9.69608 92.77362-35.04451 46.03847-60.44017 121.29414-268.03931 143.89318-402.4896 10.66147-57.42407-3.49893-98.21184-28.2355-110.62986z" fill="#3771c8" fill-rule="evenodd"/>
<path d="m482.72249,582.62706c-43.76879,10.26311-92.19162,5.5527-131.83998-13.54204-39.58998-19.06663-69.55253-51.49267-88.81924-92.02863-2.16981,5.25618-4.33735,10.53956-6.50117,15.91123-31.72697,65.87793 26.35709,112.77805 74.32872,134.98187 1.4537.6728 2.93825,1.32861 4.41132,1.95107 46.09469,20.72582 105.8049,36.18062 138.51622-31.7412 3.09848-5.41512 7.22186-10.70199 9.90413-15.5323z" fill="#500" fill-rule="evenodd"/>
<path d="m588.58291,84.6319c-24.73658-12.41802-62.56671.63952-104.34022,45.09927-13.10659,13.25274-26.90945,29.14642-40.94385,46.77299 11.45051,29.69312 34.25561,55.62256 65.87566,70.85085 31.23061,15.04074 65.27271,16.86684 95.35317,7.69916 4.96156-20.94221 9.13607-41.0758 12.27993-59.77984 10.66147-57.42407-3.48812-98.22442-28.22469-110.64244z" fill="#808080" fill-rule="evenodd"/>
<path d="m588.58291,84.6319c-24.73658-12.41802-62.56671.63952-104.34022,45.09927-84.81254,85.75824-198.16527,281.60296-221.99756,347.73983-.0641-.13434-.12375-.26805-.18767-.40255-2.16981,5.25618-4.35124,10.53288-6.51505,15.90455-22.28104,46.26437-.22633,83.14421 31.48059,108.70727 14.66136-64.41209 42.72813-132.93109 78.74846-217.60086 72.2898-155.4476 158.40275-283.99625 222.81145-299.44752z" fill="#1c2224" fill-rule="evenodd" opacity=".36885"/>
<path d="m389.00975,493.40057c-12.35951-5.43386-29.12488-2.19467-45.99818,12.25495-39.13561,31.35906-67.59689,62.56217-91.45258,126.22616-.64322,27.73052 29.69294,54.4621 61.14298,63.68095 3.22564.94553 6.47479,1.71572 9.6918,2.27432 16.8893,2.93265 33.21607.31487 44.31905-10.49691 1.0428-1.70119 2.05142-3.40996 3.04138-5.09078 30.68869-52.10542 36.34325-94.69938 38.63322-145.10858 1.95108-22.34122-6.22078-37.95566-19.37767-43.74011z" fill="#a00" fill-rule="evenodd"/>
<path d="m263.63931,477.19006c-11.24148,33.01363-15.21251,50.10301-23.80338,86.74774-25.60782,23.2724-88.96079-6.67924-87.03939-39.97283 19.07414-46.0132 40.62785-75.7674 72.57464-99.60649 24.91814-16.67093 74.04784-17.42505 65.86622-2.38928-12.47359,22.9234-18.93364,33.60569-27.59809,55.22086z" fill="#a00" fill-rule="evenodd"/>
<path d="m480.13572,581.45525c-18.80347,29.37176-29.68921,43.13099-52.98423,72.69418-2.23044,34.531 60.68524,65.39064 85.51824,43.13133 24.084-43.60044 33.90986-79.0028 32.63131-118.84329-2.501-29.87606-32.54152-68.75874-39.19651-52.98775-10.14617,24.0443-14.47067,35.75507-25.96881,56.00553z" fill="#a00" fill-rule="evenodd"/>
<path d="m245.1365,541.51553c-16.33147,2.92764-33.28319,1.07057-48.86099-6.43174-14.72926-7.09365-26.30986-18.30135-34.19844-31.83562-3.18034,6.51908-6.25694,13.41643-9.28109,20.7117-1.92141,33.29359 61.44649,63.2556 87.05432,39.9832 1.96427-8.37869 3.66283-15.66943 5.2862-22.42754z" fill="#500" fill-rule="evenodd"/>
<path d="m441.37583,636.02815c7.89291,14.59416 19.91351,26.69022 35.49131,34.19253 14.72927,7.09365 30.71209,9.16056 46.21216,6.89032-3.11421,6.55093-6.58884,13.25659-10.4073,20.16932-24.833,22.2593-87.76609-8.60555-85.53565-43.13656 5.32632-6.75951 9.96768-12.63299 14.23948-18.11561z" fill="#500" fill-rule="evenodd"/>
<path d="m265.95302,598.4006c-4.99787,10.11386-9.779,21.17555-14.38907,33.47852-.64322,27.73052 29.69295,54.4621 61.14298,63.68095 3.22564.94553 6.47479,1.71572 9.6918,2.27432 16.8893,2.93265 33.21608.31487 44.31905-10.49691 1.04281-1.70119 2.05142-3.40996 3.04138-5.09078 5.46583-9.28026 10.12147-18.24248 14.12148-27.01719-22.50166,3.95184-46.21558,1.22439-68.1363-9.33268-21.93459-10.56375-38.85302-27.42252-49.79132-47.49623z" fill="#500" fill-rule="evenodd"/>
<path d="m425.71429,160.21933c0,22.48588-18.22841,40.71429-40.71429,40.71429s-40.71429-18.22841-40.71429-40.71429 18.22841-40.71429 40.71429-40.71429 40.71429,18.22841 40.71429,40.71429z" fill="#333" transform="matrix(.85354,.41107,-.41107,.85354,152.30956,149.6)"/>
<g fill="#fff" font-family="Sans" font-size="40" letter-spacing="0" transform="matrix(1.4743,.71002,-.71002,1.4743,282.51958,-711.95893)" word-spacing="0">
<path d="m371.54175,612.90765h6.44531v-22.24609l-7.01172,1.40625v-3.59375l6.97266-1.40625h3.94531v25.83984h6.44531v3.32032h-16.79687v-3.32032" fill="#3771c8"/>
</g>
<path d="m661.64991,455.8671c0,33.19456-26.90951,60.10407-60.10407,60.10407s-60.10408-26.90951-60.10408-60.10407 26.90951-60.10408 60.10408-60.10408 60.10407,26.90951 60.10407,60.10408z" fill="#333" fill-rule="evenodd" transform="matrix(1.24636,.60025,-.5401,1.12146,-34.24821,-545.18651)"/>
<path d="m661.64991,455.8671c0,33.19456-26.90951,60.10407-60.10407,60.10407s-60.10408-26.90951-60.10408-60.10407 26.90951-60.10408 60.10408-60.10408 60.10407,26.90951 60.10407,60.10408z" fill="#1a1a1a" fill-rule="evenodd" transform="matrix(.90096,.4339,-.40501,.84096,115.14146,-314.67956)"/>
<path d="m661.64991,455.8671c0,33.19456-26.90951,60.10407-60.10407,60.10407s-60.10408-26.90951-60.10408-60.10407 26.90951-60.10408 60.10408-60.10408 60.10407,26.90951 60.10407,60.10408z" fill="#666" fill-rule="evenodd" transform="matrix(.90096,.4339,-.39598,.82222,103.89752,-309.76988)"/>
<path d="m661.64991,455.8671c0,33.19456-26.90951,60.10407-60.10407,60.10407s-60.10408-26.90951-60.10408-60.10407 26.90951-60.10408 60.10408-60.10408 60.10407,26.90951 60.10407,60.10408z" fill="#80b3ff" fill-rule="evenodd" transform="matrix(.90096,.4339,-.39042,.81067,104.89761,-302.62784)"/>
<path d="m512.64798,302.60264c-6.45057-16.28351-27.01513-1.26882-19.10718,12.1696 3.28676,13.75 21.76701,29.85944 7.42943,43.11178-6.1946,2.67599-10.52983,15.88776.14639,11.00372 10.28401-10.73593 15.99989-25.96825 19.10696-40.22852 .29428-9.08422-1.50385-18.9766-7.5756-26.05658z" fill="#d5e5ff"/>
<path d="m443.45722,328.70364c-3.96917-4.96116-6.22537-12.29898-13.49566-13.28419-6.45355.27057-8.38421,8.60277-7.86103,13.89513 .38212,6.85872 4.61566,12.89268 10.66298,15.99829 4.51962,2.69279 9.48219,4.49616 14.2335,6.71846 6.39454-1.96726 5.4757-10.62836 2.32371-15.07179-1.70298-2.9241-3.92025-5.49663-5.8635-8.2559z" fill="#d5e5ff"/>
<path d="m386.23151,492.3351c-12.03002-3.84207-27.58062-.0708-43.21497,13.31786-31.57272,25.29897-56.19901,50.52547-77.06352,92.74764-.62812,1.27109-1.23626,2.55481-1.85765,3.85723-.57125,1.19731-1.14176,2.39286-1.70746,3.6174-.1262.2729-.2673.54223-.39323.81649-.42111.91813-.84085,1.82442-1.25896,2.75815-.11107.24768-.21353.4968-.32439.74559l-.1356.28155c-.56283,1.26618-1.11868,2.54522-1.6762,3.84056-.0705.16405-.13192.32767-.20235.4922-.52915,1.23438-1.04116,2.49343-1.56565,3.75506-.5896,1.41977-1.18311,2.8622-1.76697,4.31713-.5897,1.46947-1.18087,2.95059-1.7649,4.45686-.58319,1.50411-1.15801,2.99858-1.73571,4.5403-.0201.86657-.001,1.72104.0383,2.58517 .0781,1.73758.25767,3.44152.56575,5.16308 .30643,1.71238.73055,3.42257 1.24984,5.11102 1.29824,4.22112 3.23498,8.37155 5.70409,12.35492 .98765,1.59334 2.06511,3.16331 3.21457,4.7045 .57474.7706 1.16847,1.52374 1.78093,2.27979 1.22491,1.5121 2.5307,2.99498 3.89556,4.44282 2.72971,2.89569 5.69771,5.64993 8.89971,8.24024 .008.006.0203.007.0281.0136 1.18387.9571 2.40864,1.88768 3.64753,2.79722 .23165-28.94162 7.95187-62.02825 23.60322-94.52673 20.87701-43.34905 51.3465-76.31475 82.03988-92.70961z" fill="#2b0000" fill-rule="evenodd" opacity=".38115"/>
<path d="m287.91117,413.663c-11.53415-5.34967-43.86741-1.80577-62.55601,10.69742-26.88171,20.05947-46.39911,44.28926-63.27809,78.88775-.0316.0648-.0633.13219-.0949.19709-.6403,1.31476-1.26433,2.6666-1.8973,4.01156-.12037.25619-.246.50288-.3661.76019-.4997,1.06854-.99402,2.14888-1.48948,3.23678-.61074,1.34426-1.22165,2.70608-1.82638,4.0804-.44265,1.00595-.88491,2.01648-1.32469,3.03867-.76475,1.77432-1.52578,3.56219-2.28223,5.38701-.21016,3.64149.36829,7.25647 1.58508,10.75274 .17388.49949.33914.97855.539,1.47356 1.00004,2.4823 2.34295,4.89674 3.937,7.2376 .52811.77554 1.08326,1.53892 1.66934,2.29542l.342.4422c1.08377,1.36648 2.24142,2.67897 3.49725,3.97351 .007.007.0214.007.0281.0136 2.07643,2.13827 4.37368,4.20044 6.84138,6.10433 3.46604,2.67414 7.26714,5.09868 11.27433,7.19869 16.02878,8.40004 35.32352,11.679 49.22709,5.67155 2.48298-1.07262 4.79431-2.45229 6.88514-4.14143 .41817-.33784.82844-.6749 1.22856-1.03853 1.96427-8.37869 3.66283-15.66943 5.2862-22.42754 5.47651-22.79894 9.81716-38.85138 18.48831-64.31657 8.66445-21.61517 15.13648-32.3176 27.61007-55.241 2.04541-3.75894.52101-6.51174-3.32371-8.29496z" fill="#2a0000" fill-opacity=".38039" fill-rule="evenodd"/>
<path d="m492.53812,557.2333c-3.47612,7.61868-7.18981,15.05929-12.40158,24.23823-14.50412,22.65601-24.34868,36.05776-38.75989,54.55372-1.93643,2.4853-3.90978,5.00144-6.03559,7.70694-2.67035,3.39584-5.14036,6.52082-8.2039,10.40868-.0349.53955-.0426,1.07047-.046,1.60803-.0171,2.68785.34517,5.35514 1.05456,7.96521 .1438.52908.31354,1.06148.48476,1.58619 .16664.51072.32002,1.02366.51188,1.52988 .003.007.0255.007.0282.0136 .19208.5058.37883.99975.59531,1.50069 .2223.51543.47415,1.01687.72148,1.52677 .24394.50278.46757,1.00158.73505,1.49861 .004.007.0242.006.0282.0136 .2638.48945.53261.98593.81848,1.46942 .51188.86714 1.0657,1.71522 1.64533,2.56134 10.85173-10.94893 22.89979-27.1556 33.76604-46.34508 16.24177-28.68251 25.43177-56.19259 25.05781-71.83574z" fill="#290000" fill-opacity=".1451" fill-rule="evenodd"/>
<path d="m610.35588,149.00029c-.76525,19.72184.24635,32.28457-27.55269,60.86981 22.1291-34.91818 8.3532-105.69735 14.81689-100.43431 9.94189,1.41475 13.53615,18.93803 12.7358,39.5645z" fill="#fff" opacity=".21311"/>
<path d="m496.05687,257.23554c-40.0032-16.10125-84.56919-1.71495-101.68407,33.82243-17.12741,35.56337-.5518,79.40916 37.03547,100.63008-31.34814-24.15271-44.1307-63.93128-28.44821-96.49444 15.6698-32.53678 54.69876-47.36284 93.09681-37.95807z" fill="#2b2b2b" fill-rule="evenodd"/>
<path d="m512.85715,578.79077c0,10.65121-3.19796,19.28572-7.14286,19.28572s-7.14285-8.63451-7.14285-19.28572 3.19796-19.28571 7.14285-19.28571 7.14286,8.63451 7.14286,19.28571z" fill="#fff" opacity=".21311" transform="translate(19.88117,-14.82089)"/>
<path d="m512.85715,578.79077c0,10.65121-3.19796,19.28572-7.14286,19.28572s-7.14285-8.63451-7.14285-19.28572 3.19796-19.28571 7.14285-19.28571 7.14286,8.63451 7.14286,19.28571z" fill="#fff" opacity=".21311" transform="matrix(1.29946,.6087,-.64828,1.22011,96.8892,-483.62046)"/>
</g>
</g>
</svg>
