<?xml version="1.0" encoding="UTF-8" standalone="no"?>
<svg viewBox="0 0 823.20154 387.91223" xmlns="http://www.w3.org/2000/svg">
<defs>
<filter id="filter4604-7-1">
<feGaussianBlur stdDeviation="2.90193"/>
</filter>
<filter id="filter4588-4-3">
<feGaussianBlur stdDeviation="2.20135"/>
</filter>
</defs>
<g transform="translate(151.79464,-335.04992)">
<path d="m-151.79464,489.04018v1c178.77813,1.49154 192.00219-9.49529.00015-.99995l-.00015-5e-005z"/>
<path d="m-149.54341,596.99089v1c178.77813,1.49154 192.00219-9.49529.00015-.99995l-.00015-5e-005z"/>
<path d="m-83.82912,510.58966v.35028c62.62204.52245 67.25414-3.32599 5e-005-.35026l-5e-005-2e-005z"/>
<path d="m-102.93096,527.01824v.35028c62.62205.52245 67.25415-3.32599 5e-005-.35026l-5e-005-2e-005z"/>
<path d="m-78.64524,544.1611v.35028c62.62204.52245 67.25414-3.32599 5e-005-.35026l-5e-005-2e-005z"/>
<path d="m-54.35953,568.44681v.35028c62.62204.52245 67.25414-3.32599 5e-005-.35026l-5e-005-2e-005z"/>
<path d="m565.3836,547.32876c-26.97122-.81741-41.52974-16.80591-51.44196-38.47321 0,0-9.84592,25.195-28.04465,49.23214s-81.41591-7.34015-117.83482-8.96429c-49.01926-2.18605-197.05993,63.65764-217.05357,70.8125s-18.05426,23.76308 1.625,24.17411 195.75795-13.07923 242.90625-5.75c90.02486,13.99443 133.23065-8.05817 153.25-34.5s16.59375-56.53125 16.59375-56.53125z" fill="#a40" stroke="#000" stroke-width="7.2"/>
<path d="m646.77212,540.26354c-3.98145-.62767-40.31522,7.55142-57.76946-2.82825-1.03267,7.72449-.42005,15.87543.11727,22.99123 13.12391-.3979 26.40857-2.11612 39.64017-2.46831 7.85778.0243 15.82903.94627 23.15481,3.97328 .80439-3.23668-1.16135-21.04028-5.14279-21.66795z" fill="#fff" fill-rule="evenodd" stroke="#000" stroke-linecap="round" stroke-width="7.2"/>
<path d="m581.63036,509.42909c24.1708,2.50969 43.05703.74951 63.3616-.29463 1.19071-7.94938 2.67899-10.72019-.80019-18.66957-21.33086,5.99911-37.00612,1.61266-58.42748-2.4331-8.55906,11.88048-10.47122,6.61133-4.13393,21.3973z" fill="#fff" fill-rule="evenodd" stroke="#000" stroke-linecap="round" stroke-width="7.2"/>
<path d="m154.55334,182.62083a7.82868,15.65737 0 1,1 -15.65737,0 7.82868,15.65737 0 1,1 15.65737,0z" fill-rule="evenodd" stroke="#000" stroke-linecap="round" stroke-width="3.6" transform="translate(509.22521,259.19822)"/>
<path d="m154.55334,182.62083a7.82868,15.65737 0 1,1 -15.65737,0 7.82868,15.65737 0 1,1 15.65737,0z" fill="#ccc" fill-rule="evenodd" stroke="#000" stroke-linecap="round" stroke-width="3.6" transform="translate(515.03359,258.69315)"/>
<path d="m623.26857,409.11667c-24.00376-57.33202-49.73265-68.63087-99.66778-66.36541-2.24151-2.16141-5.45738-3.98814-9.24652-5.03259-1.0334-.28485-2.05612-.48598-3.06455-.63134-7.05896-1.01751-13.22348,1.29693-14.4558,5.76767-1.40838,5.10943 4.15119,11.08546 12.4184,13.36426 6.55961,1.80811 12.82999.74533 15.85328-2.32659 16.38517,2.9812 30.81878,1.14693 48.35709,10.45295 15.54774,8.24979 34.83316,36.98488 40.81193,49.89882" fill="#a40" fill-rule="evenodd" stroke="#000" stroke-linecap="round" stroke-width="3.6"/>
<path d="m560.69928,562.27552c23.11052,33.7485 86.01473,67.91472 99.97896-7.37397-8.17476-3.731-48.16465,13.07661-70.5836-4.98351-5.70252-10.7202-15.29227-43.04224-4.28125-60.71875 27.09282,6.66186 76.19461,13.25368 76.09375-2-21.31406-38.99226-3.28584-80.74367-52.5617-82.48192-109.91832-6.64771-153.61293,92.13865-97.16224,137.56717" fill="#a40" stroke="#000" stroke-width="7.2"/>
<path d="m646.23444,582.99517c-.96946,2.16013-60.65888,17.98521-78.81822-13.92066 0,0 56.1292,51.88572 78.81822,13.92066z" fill="#520" fill-opacity=".62925"/>
<path d="m582.21133,478.72852c-2.96128-1.14204-6.41897-.83213-9.21199,1.13202-2.2711,1.59712-3.66152,3.97773-4.06248,6.5176" fill="#fff" fill-rule="evenodd" stroke="#000" stroke-linecap="round" stroke-width="7.2"/>
<path d="m576.24118,482.59265c2.46406,3.7465 13.1079,9.05244 17.45527,8.09064" fill="#fff" fill-rule="evenodd" stroke="#000" stroke-linecap="round" stroke-width="7.2"/>
<path d="m496.21582,429.43617c-5.15362,14.84111-8.16705,26.22372 0,38.4007 43.14551-26.28174 90.82046-19.94362 136.36485-12.12183v-17.1875c-44.76325-13.4879-89.02969-19.45644-136.36485-9.09137z" fill="#fff" fill-rule="evenodd" stroke="#000" stroke-linecap="round" stroke-width="3.6"/>
<path d="m154.55334,182.62083a7.82868,15.65737 0 1,1 -15.65737,0 7.82868,15.65737 0 1,1 15.65737,0z" fill-rule="evenodd" stroke="#000" stroke-linecap="round" stroke-width="3.6" transform="translate(490.15857,265.0066)"/>
<path d="m154.55334,182.62083a7.82868,15.65737 0 1,1 -15.65737,0 7.82868,15.65737 0 1,1 15.65737,0z" fill="#ccc" fill-rule="evenodd" stroke="#000" stroke-linecap="round" stroke-width="3.6" transform="translate(495.96695,264.50153)"/>
<path d="m549.24967,397.59056-24.33036,5.40625c9.86596,59.07854 25.40135,127.86072 50.35189,181.28255 6.49864,7.51439 11.8512,11.38482 21.47322,7.79751-32.83747-55.00294-44.97349-133.79907-47.49475-194.48631z" fill="#fff" fill-rule="evenodd" stroke="#000" stroke-linecap="round" stroke-width="3.6"/>
<path d="m566.05817,359.24598c-64.7673,10.69702-109.93498,24.7944-88.61919,91.93008 8.18811,25.78908 74.73769-34.67453 101.33151-39.6636s91.62044,19.74923 88.95695-7.17711c-6.48479-65.55752-50.06548-56.22387-101.66927-45.08937z" fill="#fff" fill-rule="evenodd" stroke="#000" stroke-width="7.2"/>
<path d="m608.64238,420.60381c-35.88228-46.60838-81.4511-44.78726-127.53125-40.40625-2.54511-1.79401-6.0021-3.10856-9.90625-3.5625-1.06476-.1238-2.1062-.16649-3.125-.15625-7.13156.0717-12.87064,3.29981-13.40625,7.90625-.61211,5.26451 5.79435,10.32208 14.3125,11.3125 6.75871.78585 12.79344-1.22143 15.3125-4.71875 31.40687.84078 86.63829.56361 103.40625,25.78125" fill="#a40" fill-rule="evenodd" stroke="#000" stroke-linecap="round" stroke-width="3.6"/>
<path d="m151.16506,640.4688c80.42009-3.49266 190.48587-11.71038 270.81507-2.11438 33.73855,3.85652 71.77972,2.22309 101.55201-15.92702 17.02454-10.31532 32.43768-24.0785 34.38515-43.85549-97.53012,78.94422-270.64515,6.58246-406.75223,61.89689z" fill="#520" fill-opacity=".42177"/>
<g transform="matrix(1,0,0,-1,608.0013,760.88316)">
<g transform="translate(73.57143,170)">
<path d="m-679.88301,88.07958c-1.47048,1.02369 61.72037,6.34523 84.73798,10.59961-22.73417,10.14143-79.39915,3.07406-79.6649,6.15123-1.36969,15.85961 75.4493,34.09766 87.34378,24.63672s105.63771-22.12061 108.80297-30.77331c-8.94077-20.46052-52.81928-32.13926-70.28035-45.2892-29.04969-19.71191-129.42283,24.86376-128.8381,24.58726 3.06754-1.45059 62.34501-24.24395 89.56878,1.35976-25.35557,1.88343-57.09961,2.54746-91.67016,8.72793z" fill="#f00" fill-rule="evenodd" filter="url(#filter4604-7-1)"/>
<path d="m-614.60649,59.7853c3.37729-1.67418 31.08118,12.51487 40.15179,25.38839-17.90786,1.48628-35.86458,2.2875-53.78125,3.65625 17.90198,2.05841 35.75134,4.61356 53.5,7.90625-19.99637,12.25296-43.86372,15.8155-67,15.78125 46.15867,37.87539 84.92826-33.90114 125.53618-.70941 10.45398-3.74041 20.95552-7.60621 30.37007-13.63434-5.11135-2.1644-5.46332-17.41422-10.81936-17.04488-47.40286,3.26875-38.46114-23.38084-117.95743-21.34351z" fill="#ff0" fill-rule="evenodd" filter="url(#filter4588-4-3)"/>
</g>
<path d="m-445.13858,238.26966c23.24816,31.51232 6.21925,26.0761-2.14286,43.53941 67.0597,24.50094 133.951,33.38179 191.39299,8.57143 36.21876-21.74539 35.05698-48.83874 0-63.53941-34.4811-12.86756-88.75998-31.33824-189.25013,11.42857z" fill="#fff" fill-rule="evenodd" stroke="#000" stroke-linecap="round" stroke-width="7.2"/>
</g>
<path d="m93.57142,309.86218a150.71428,103.92857 0 1,1 -301.42856,0 150.71428,103.92857 0 1,1 301.42856,0z" fill="#a40" fill-rule="evenodd" stroke="#000" stroke-linecap="round" stroke-width="7.2" transform="matrix(.94376,.33062,-.33062,.94376,486.05069,258.12494)"/>
<path d="m-257.85715,150.21933-.005.001c-.0363-.003-.026-.0684-.0184-.0874 .0773-.19393.37075-.12461.49822-.0411 .5957.39015.33166,1.28877-.0477,1.72247-1.22041,1.39522-3.42528.65243-4.5087-.50158-2.782-2.96327-1.05831-7.62719 1.72513-9.88682 6.13835-4.98318 14.99965-1.48327 19.18269,4.28458 8.26449,11.39561 1.82109,26.91755-8.91623,34.03034-19.52035,12.93099-45.03535,1.92309-56.38257-16.53357-19.3278-31.43733-1.59619-71.29567 28.23344-88.52033 48.21472-27.84085 107.93706-.60127 133.06125,45.30152 7.59595,13.87809 12.36771,29.23453 14.24285,44.93259" fill="none" stroke="#000" stroke-width="3.6" transform="translate(557.53092,406.09215)"/>
<path d="m255.56339,426.06954c-11.27651,30.30366-1.69989,60.60733-1.01015,90.911h54.5625c-2.80043-32.53163-11.78507-65.94671 3.03046-95.96177-21.56894-15.91845-40.40132-14.0492-56.58281,5.05077z" fill="#fff" fill-rule="evenodd" stroke="#000" stroke-linecap="round" stroke-width="7.2"/>
<path d="m187.0723,478.26951c-18.97716,54.17026 29.31882,120.38611 107.875,147.90625 54.20945,18.99089 108.65901,14.59083 143.4389-7.76176 15.69308-11.00557-184.42529,36.52695-251.3139-140.14449z" fill="#520" fill-opacity=".29592" fill-rule="evenodd"/>
<g transform="translate(603.71557,280.98406)">
<g transform="translate(73.57143,170)">
<path d="m-679.88301,88.07958c-1.47048,1.02369 61.72037,6.34523 84.73798,10.59961-22.73417,10.14143-79.39915,3.07406-79.6649,6.15123-1.36969,15.85961 75.4493,34.09766 87.34378,24.63672s105.63771-22.12061 108.80297-30.77331c-8.94077-20.46052-52.81928-32.13926-70.28035-45.2892-29.04969-19.71191-129.42283,24.86376-128.8381,24.58726 3.06754-1.45059 62.34501-24.24395 89.56878,1.35976-25.35557,1.88343-57.09961,2.54746-91.67016,8.72793z" fill="#f00" fill-rule="evenodd" filter="url(#filter4604-7-1)"/>
<path d="m-614.60649,59.7853c3.37729-1.67418 31.08118,12.51487 40.15179,25.38839-17.90786,1.48628-35.86458,2.2875-53.78125,3.65625 17.90198,2.05841 35.75134,4.61356 53.5,7.90625-19.99637,12.25296-43.86372,15.8155-67,15.78125 46.15867,37.87539 84.92826-33.90114 125.53618-.70941 10.45398-3.74041 20.95552-7.60621 30.37007-13.63434-5.11135-2.1644-5.46332-17.41422-10.81936-17.04488-47.40286,3.26875-38.46114-23.38084-117.95743-21.34351z" fill="#ff0" fill-rule="evenodd" filter="url(#filter4588-4-3)"/>
</g>
<path d="m-445.13858,238.26966c23.24816,31.51232 6.21925,26.0761-2.14286,43.53941 67.0597,24.50094 133.951,33.38179 191.39299,8.57143 36.21876-21.74539 35.05698-48.83874 0-63.53941-34.4811-12.86756-88.75998-31.33824-189.25013,11.42857z" fill="#fff" fill-rule="evenodd" stroke="#000" stroke-linecap="round" stroke-width="7.2"/>
</g>
<path d="m157.14842,559.2217c67.0597,24.50094 133.951,33.38179 191.39299,8.57143 19.046-11.43503 27.7552-24.34893 26.63443-36.16193-29.08951,30.39822-145.55352,14.87432-203.40813,11.38684-4.7039-.28355-10.79427,16.542-14.61929,16.20366z" fill-opacity=".11224" fill-rule="evenodd"/>
<path d="m446.65498,675.02744-118.93623,41.28506-60.5-30.8125-.1875-.0937-.1875.0625-89.8125,31.375-20.28125-16.3125-.26786.78125 20.33036,20.22767 89.44196-25.07137 61.118,26.49329 118.97129-45.70574 22.13721,45.4908 77.42529-25.6221-.25-.96875-74.27617,17.73223-24.7251-38.86114z"/>
</g>
</svg>
